<svg xmlns="http://www.w3.org/2000/svg" width="40" height="32" viewBox="0 0 118 94" role="img" aria-label="Bootstrap Logo">
  <title>Bootstrap</title>
  <path 
    d="M24.5 0C17.8 0 12.8 5.9 13 12.3c.2 6.1-.1 14.1-2.1 20.6C8.9 39.4 5.5 43.5 0 44v6c5.5.5 8.9 4.6 10.9 11.2 2 6.5 2.3 14.4 2.1 20.6-.2 6.4 4.8 12.2 11.5 12.2h69c6.7 0 11.7-5.9 11.5-12.3-.2-6.1.1-14.1 2.1-20.6 2-6.5 5.4-10.6 10.9-11.2v-6c-5.5-.5-8.9-4.6-10.9-11.2-2-6.5-2.3-14.4-2.1-20.6.2-6.4-4.8-12.3-11.5-12.3h-69zM80 57.9c0 8.8-6.6 14.1-17.5 14.1H44a2 2 0 0 1-2-2V24a2 2 0 0 1 2-2h18.4c9.1 0 15 4.9 15 12.5 0 5.3-4 10-9.1 10.9v.3c7.9.6 11.7 5.4 11.7 12.1zm-19.5-29.5H49.9v14.9h8.9c6.9 0 10.7-2.8 10.7-7.7 0-4.6-3.3-7.2-9-7.2zM49.9 49.2v16.5H60.9c7.2 0 11-2.9 11-8.3 0-5.4-3.9-8.2-11.4-8.2H49.9z"
    fill="#7952b3" />
</svg>
